<svg width="102" height="101" viewBox="0 0 102 101" fill="none" xmlns="http://www.w3.org/2000/svg">
<path d="M51.9442 16.6901C51.6374 16.5879 51.3179 16.6893 50.9988 16.6887C50.6802 16.6879 50.3623 16.5851 50.0563 16.6873L14.1948 28.6429V34.31L50.0533 46.2628C50.3597 46.365 50.6806 46.4174 50.9988 46.4174C51.3169 46.4174 51.6378 46.3648 51.9442 46.2628L87.8027 34.31V28.6429L51.9442 16.6901Z" fill="#D36E00"/>
<path d="M87.8039 34.3095V28.6425L51.9455 16.6897C51.6387 16.5875 51.3191 16.6889 51 16.6883V46.4172C51.3181 46.4172 51.6391 46.3646 51.9455 46.2626L87.8039 34.3095Z" fill="#FF9100"/>
<path d="M51.0002 41.4355H12.1536V85.4628C12.1536 86.7497 12.9765 87.8908 14.1963 88.2964L50.0548 100.249C50.3612 100.351 50.6821 100.404 51.0002 100.404C51.3184 100.404 51.6393 100.351 51.9457 100.249L87.8042 88.2964C89.024 87.8908 89.8469 86.7497 89.8469 85.4628V41.4355H51.0002Z" fill="#FED330"/>
<path d="M87.8039 88.2962C89.0237 87.8906 89.8467 86.7495 89.8467 85.4626V41.4355H51V100.404C51.3181 100.404 51.6391 100.351 51.9455 100.249L87.8039 88.2962Z" fill="#FDB500"/>
<path d="M58.4713 0C55.5697 0 53.0084 1.12237 51.0008 3.25953C48.9931 1.12237 46.4318 0 43.5303 0C37.6656 0 33.0715 4.60064 33.0715 10.4739C33.0715 16.6847 38.1955 20.6768 45.2869 26.202C46.5161 27.1596 47.7869 28.1497 49.1341 29.2274C49.6798 29.6639 50.3404 29.8823 51.0008 29.8823C51.6612 29.8823 52.3217 29.6639 52.8674 29.2274C54.2147 28.1497 55.4855 27.1596 56.7146 26.202C63.8062 20.6768 68.93 16.6847 68.93 10.4739C68.93 4.60064 64.3359 0 58.4713 0Z" fill="#FF5E5E"/>
<path d="M52.8666 29.2274C54.2139 28.1497 55.4847 27.1596 56.7138 26.202C63.8055 20.6768 68.9292 16.6849 68.9292 10.4739C68.9292 4.60064 64.3352 0 58.4705 0C55.569 0 53.0077 1.12237 51 3.25953V29.8821C51.6604 29.8823 52.321 29.6641 52.8666 29.2274Z" fill="#E63939"/>
<path d="M101.497 47.7478L89.3449 29.8186C88.5949 28.695 87.1855 28.202 85.9131 28.6426L51.0001 40.2803L16.0873 28.6426C14.8061 28.205 13.3997 28.6952 12.6554 29.8186L0.503398 47.7478C-0.598852 49.4043 0.195613 51.6287 2.04412 52.2389L38.1018 64.1917C39.3708 64.6184 40.7824 64.1421 41.5337 63.0158L51.0003 48.816L60.4669 63.0158C61.2188 64.1433 62.6312 64.6182 63.8988 64.1917L99.9565 52.2389C101.808 51.6275 102.597 49.4007 101.497 47.7478Z" fill="#FFE470"/>
<path d="M63.8985 64.1917L99.9562 52.2389C101.808 51.6275 102.597 49.4007 101.497 47.7478L89.3448 29.8186C88.5948 28.695 87.1854 28.202 85.913 28.6426L51 40.2803V48.816L60.4666 63.0158C61.2185 64.1433 62.6309 64.6182 63.8985 64.1917Z" fill="#FED330"/>
</svg>
