<svg width="101" height="101" viewBox="0 0 101 101" fill="none" xmlns="http://www.w3.org/2000/svg">
<g clip-path="url(#clip0_57_237)">
<path d="M50.6973 0C22.9424 0 0 22.5475 0 50.3027C0 78.058 22.9424 101 50.6973 101C78.4521 101 101 78.058 101 50.3027C101 22.5475 78.4521 0 50.6973 0Z" fill="#FFD931"/>
<path d="M101 50.3027C101 78.058 78.4521 101 50.6973 101V0C78.4521 0 101 22.5475 101 50.3027Z" fill="#FFCC33"/>
<path d="M50.6973 11.8359C29.5105 11.8359 11.8359 29.1162 11.8359 50.3027C11.8359 71.4893 29.5105 89.1641 50.6973 89.1641C71.884 89.1641 89.1641 71.4893 89.1641 50.3027C89.1641 29.1162 71.884 11.8359 50.6973 11.8359Z" fill="#FEA832"/>
<path d="M89.1641 50.3027C89.1641 71.4893 71.884 89.1641 50.6973 89.1641V11.8359C71.884 11.8359 89.1641 29.1162 89.1641 50.3027Z" fill="#FE9923"/>
<path d="M56.6152 47.3438H53.6562V35.5078H56.6152C58.2725 35.5078 59.5742 36.8096 59.5742 38.4668C59.5742 42.3725 65.4922 42.3725 65.4922 38.4668C65.4922 33.5547 61.5275 29.5898 56.6152 29.5898H53.6562V26.6309C53.6562 24.6777 52.1768 23.6719 50.6973 23.6719C49.2178 23.6719 47.7383 24.6777 47.7383 26.6309V29.5898H44.3848C39.4725 29.5898 35.5078 33.5547 35.5078 38.4668V44.3848C35.5078 49.2969 39.4725 53.2617 44.3848 53.2617H47.7383V65.4922H44.3848C42.7275 65.4922 41.4258 64.1904 41.4258 62.5332C41.4258 58.6275 35.5078 58.6275 35.5078 62.5332C35.5078 67.4453 39.4725 71.4102 44.3848 71.4102H47.7383V74.3691C47.7383 76.3223 49.2178 77.3281 50.6973 77.3281C52.1768 77.3281 53.6562 76.3223 53.6562 74.3691V71.4102H56.6152C61.5275 71.4102 65.4922 67.4453 65.4922 62.5332V56.2207C65.4922 51.3086 61.5275 47.3438 56.6152 47.3438ZM47.7383 47.3438H44.3848C42.7275 47.3438 41.4258 46.042 41.4258 44.3848V38.4668C41.4258 36.8096 42.7275 35.5078 44.3848 35.5078H47.7383V47.3438ZM59.5742 62.5332C59.5742 64.1904 58.2725 65.4922 56.6152 65.4922H53.6562V53.2617H56.6152C58.2725 53.2617 59.5742 54.5635 59.5742 56.2207V62.5332Z" fill="#FFD931"/>
<path d="M56.6152 47.3438H53.6562V35.5078H56.6152C58.2725 35.5078 59.5742 36.8096 59.5742 38.4668C59.5742 42.3725 65.4922 42.3725 65.4922 38.4668C65.4922 33.5547 61.5275 29.5898 56.6152 29.5898H53.6562V26.6309C53.6562 24.6777 52.1768 23.6719 50.6973 23.6719V77.3281C52.1768 77.3281 53.6562 76.3223 53.6562 74.3691V71.4102H56.6152C61.5275 71.4102 65.4922 67.4453 65.4922 62.5332V56.2207C65.4922 51.3086 61.5275 47.3438 56.6152 47.3438ZM59.5742 62.5332C59.5742 64.1904 58.2725 65.4922 56.6152 65.4922H53.6562V53.2617H56.6152C58.2725 53.2617 59.5742 54.5635 59.5742 56.2207V62.5332Z" fill="#FFCC33"/>
</g>
<defs>
<clipPath id="clip0_57_237">
<rect width="101" height="101" fill="white"/>
</clipPath>
</defs>
</svg>
