<svg width="162" height="25" viewBox="0 0 162 25" fill="none" xmlns="http://www.w3.org/2000/svg">
<g clip-path="url(#clip0_655_3685)">
<g clip-path="url(#clip1_655_3685)">
<path d="M27.2798 19.7344L22.8498 24.4777C22.7535 24.5815 22.637 24.6646 22.5075 24.7219C22.378 24.7792 22.2381 24.8095 22.0965 24.811H1.09652C0.99643 24.8104 0.898687 24.7807 0.815167 24.7255C0.731647 24.6703 0.665947 24.5921 0.626051 24.5003C0.586156 24.4085 0.573782 24.3071 0.590434 24.2084C0.607086 24.1097 0.652046 24.018 0.719852 23.9444L5.14985 19.1944C5.24622 19.0906 5.36271 19.0075 5.49223 18.9502C5.62174 18.8929 5.76157 18.8626 5.90318 18.861H26.9032C27.0046 18.8605 27.1039 18.8898 27.1888 18.9452C27.2736 19.0007 27.3403 19.08 27.3805 19.1731C27.4206 19.2662 27.4325 19.369 27.4146 19.4689C27.3967 19.5687 27.3498 19.661 27.2798 19.7344ZM22.8498 10.1677C22.7539 10.0635 22.6374 9.98006 22.5078 9.92272C22.3782 9.86537 22.2382 9.8353 22.0965 9.83437H1.09652C0.996429 9.83414 0.898457 9.86318 0.814658 9.91791C0.730858 9.97265 0.664887 10.0507 0.624863 10.1424C0.584838 10.2342 0.572505 10.3356 0.589382 10.4343C0.606258 10.5329 0.651608 10.6245 0.719852 10.6977L5.14985 15.4544C5.24585 15.5586 5.36227 15.642 5.49186 15.6993C5.62146 15.7567 5.76147 15.7868 5.90318 15.7877H26.9032C27.0033 15.7879 27.1012 15.7589 27.185 15.7042C27.2688 15.6494 27.3348 15.5714 27.3748 15.4796C27.4149 15.3879 27.4272 15.2865 27.4103 15.1878C27.3934 15.0892 27.3481 14.9976 27.2798 14.9244L22.8498 10.1677ZM1.09652 6.75437H22.0965C22.2381 6.75285 22.378 6.72251 22.5075 6.6652C22.637 6.60789 22.7535 6.52482 22.8498 6.42103L27.2798 1.6777C27.3477 1.60408 27.3926 1.51234 27.4093 1.41365C27.4259 1.31495 27.4135 1.21354 27.3736 1.12175C27.3338 1.02995 27.2681 0.951722 27.1845 0.896563C27.101 0.841403 27.0033 0.81169 26.9032 0.811035H5.90318C5.76157 0.812557 5.62174 0.842896 5.49223 0.900203C5.36271 0.95751 5.24622 1.04059 5.14985 1.14437L0.719852 5.8877C0.652046 5.96133 0.607086 6.05306 0.590434 6.15175C0.573782 6.25045 0.586156 6.35186 0.626051 6.44365C0.665947 6.53545 0.731647 6.61368 0.815167 6.66884C0.898687 6.724 0.99643 6.75371 1.09652 6.75437Z" fill="url(#paint0_linear_655_3685)"/>
<path d="M52.7432 10.9443H41.5165V7.21099H55.6665V3.47766H41.4899C40.5068 3.47766 39.564 3.86818 38.8689 4.56332C38.1737 5.25845 37.7832 6.20126 37.7832 7.18433V10.971C37.7832 11.4578 37.8791 11.9398 38.0654 12.3895C38.2516 12.8392 38.5247 13.2478 38.8689 13.592C39.564 14.2871 40.5068 14.6777 41.4899 14.6777H52.7165V18.411H38.0499V22.1443H52.7432C53.7263 22.1443 54.6691 21.7538 55.3642 21.0587C56.0593 20.3635 56.4499 19.4207 56.4499 18.4377V14.651C56.4499 14.1642 56.354 13.6822 56.1677 13.2325C55.9814 12.7828 55.7084 12.3742 55.3642 12.03C55.02 11.6858 54.6114 11.4128 54.1617 11.2265C53.712 11.0402 53.23 10.9443 52.7432 10.9443Z" fill="black"/>
<path d="M74.4702 3.47766H63.2135C62.2304 3.47766 61.2876 3.86818 60.5925 4.56332C59.8974 5.25845 59.5068 6.20126 59.5068 7.18433V18.4377C59.5068 19.4207 59.8974 20.3635 60.5925 21.0587C61.2876 21.7538 62.2304 22.1443 63.2135 22.1443H74.4702C74.9568 22.1443 75.4386 22.0484 75.8881 21.8621C76.3377 21.6758 76.7461 21.4027 77.09 21.0585C77.4339 20.7142 77.7066 20.3056 77.8926 19.8559C78.0785 19.4062 78.1739 18.9243 78.1735 18.4377V7.18433C78.1739 6.69772 78.0785 6.21579 77.8926 5.7661C77.7066 5.31641 77.4339 4.90776 77.09 4.56352C76.7461 4.21928 76.3377 3.9462 75.8881 3.75988C75.4386 3.57356 74.9568 3.47766 74.4702 3.47766ZM74.4402 18.411H63.2402V7.21099H74.4402V18.411Z" fill="black"/>
<path d="M113.913 3.47766H102.913C102.426 3.47766 101.944 3.57354 101.495 3.75981C101.045 3.94609 100.636 4.21912 100.292 4.56332C99.948 4.90751 99.675 5.31613 99.4887 5.76585C99.3024 6.21556 99.2065 6.69756 99.2065 7.18433V22.1443H102.94V16.011H113.873V22.1443H117.607V7.18433C117.607 6.20356 117.218 5.26277 116.526 4.56802C115.833 3.87327 114.894 3.48119 113.913 3.47766ZM113.887 12.2777H102.953V7.21099H113.887V12.2777Z" fill="black"/>
<path d="M157.626 3.47766H146.626C145.646 3.48119 144.706 3.87327 144.014 4.56802C143.322 5.26277 142.933 6.20356 142.933 7.18433V22.1443H146.666V16.011H157.6V22.1443H161.333V7.18433C161.333 6.69756 161.237 6.21556 161.051 5.76585C160.865 5.31613 160.592 4.90751 160.247 4.56332C159.903 4.21912 159.495 3.94609 159.045 3.75981C158.595 3.57354 158.113 3.47766 157.626 3.47766ZM157.6 12.2777H146.666V7.21099H157.6V12.2777Z" fill="black"/>
<path d="M135.876 18.411H134.383L129.05 5.03104C128.865 4.56993 128.545 4.17521 128.132 3.89819C127.72 3.62117 127.233 3.47466 126.736 3.47771H123.403C122.748 3.47771 122.12 3.73794 121.657 4.20115C121.193 4.66437 120.933 5.29262 120.933 5.94771V22.1444H124.666V7.21104H126.16L131.513 20.591C131.697 21.0511 132.015 21.4452 132.426 21.7222C132.836 21.9992 133.321 22.1463 133.816 22.1444H137.15C137.474 22.1444 137.795 22.0805 138.095 21.9564C138.395 21.8322 138.667 21.6503 138.896 21.4209C139.126 21.1916 139.308 20.9193 139.432 20.6196C139.556 20.3199 139.62 19.9987 139.62 19.6744V3.47771H135.886L135.876 18.411Z" fill="black"/>
<path d="M85.2299 3.47766H81.4966V18.4377C81.4966 19.4207 81.8871 20.3635 82.5822 21.0587C83.2774 21.7538 84.2202 22.1443 85.2032 22.1443H96.4299V18.411H85.2299V3.47766Z" fill="black"/>
</g>
</g>
<defs>
<linearGradient id="paint0_linear_655_3685" x1="2.84652" y1="25.3844" x2="24.8698" y2="0.557703" gradientUnits="userSpaceOnUse">
<stop offset="0.08" stop-color="#9945FF"/>
<stop offset="0.3" stop-color="#8752F3"/>
<stop offset="0.5" stop-color="#5497D5"/>
<stop offset="0.6" stop-color="#43B4CA"/>
<stop offset="0.72" stop-color="#28E0B9"/>
<stop offset="0.97" stop-color="#19FB9B"/>
</linearGradient>
<clipPath id="clip0_655_3685">
<rect width="161.333" height="24" fill="white" transform="translate(0 0.811035)"/>
</clipPath>
<clipPath id="clip1_655_3685">
<rect width="161.333" height="24" fill="white" transform="translate(0 0.811035)"/>
</clipPath>
</defs>
</svg>
