<svg width="58" height="46" viewBox="0 0 58 46" fill="none" xmlns="http://www.w3.org/2000/svg">
<path d="M52.0622 11.4516C52.0975 11.9507 52.0975 12.4497 52.0975 12.9534C52.0975 28.3003 40.1276 46 18.24 46V45.9908C11.7744 46 5.44302 44.1923 0 40.7839C0.940158 40.8943 1.88503 40.9495 2.83226 40.9518C8.19045 40.9564 13.3955 39.2016 17.6109 35.9703C12.519 35.876 8.05379 32.6355 6.49393 27.9047C8.27764 28.2405 10.1155 28.1715 11.8663 27.7047C6.31485 26.6099 2.32094 21.8492 2.32094 16.3204C2.32094 16.2698 2.32094 16.2215 2.32094 16.1732C3.97506 17.0724 5.8271 17.5715 7.72155 17.6267C2.49295 14.216 0.881251 7.42684 4.03868 2.11877C10.0802 9.37481 18.994 13.7859 28.5629 14.2528C27.6039 10.2189 28.914 5.99173 32.0054 3.156C36.7981 -1.24132 44.3359 -1.01593 48.8411 3.65967C51.5061 3.14681 54.0603 2.19237 56.3977 0.840051C55.5094 3.52858 53.6503 5.81234 51.1668 7.26355C53.5254 6.99216 55.8299 6.3758 58 5.43516C56.4024 7.77181 54.3902 9.80719 52.0622 11.4516Z" fill="black"/>
</svg>
